<?xml version="1.0" encoding="UTF-8" standalone="no"?>
<!-- Created with Inkscape (http://www.inkscape.org/) -->
<svg
   xmlns:dc="http://purl.org/dc/elements/1.1/"
   xmlns:cc="http://creativecommons.org/ns#"
   xmlns:rdf="http://www.w3.org/1999/02/22-rdf-syntax-ns#"
   xmlns:svg="http://www.w3.org/2000/svg"
   xmlns="http://www.w3.org/2000/svg"
   xmlns:sodipodi="http://sodipodi.sourceforge.net/DTD/sodipodi-0.dtd"
   xmlns:inkscape="http://www.inkscape.org/namespaces/inkscape"
   width="256"
   height="128"
   id="svg2"
   sodipodi:version="0.32"
   inkscape:version="0.46"
   version="1.0"
   sodipodi:docname="TWL Logo.svg"
   inkscape:output_extension="org.inkscape.output.svg.inkscape"
   inkscape:export-filename="D:\Java\Projects\TWL\TWL Logo.png"
   inkscape:export-xdpi="90"
   inkscape:export-ydpi="90">
  <defs
     id="defs4">
    <inkscape:perspective
       sodipodi:type="inkscape:persp3d"
       inkscape:vp_x="0 : 526.18109 : 1"
       inkscape:vp_y="0 : 1000 : 0"
       inkscape:vp_z="744.09448 : 526.18109 : 1"
       inkscape:persp3d-origin="372.04724 : 350.78739 : 1"
       id="perspective10" />
    <filter
       inkscape:collect="always"
       id="filter3466"
       x="-0.1266346"
       width="1.2532692"
       y="-1.5512736"
       height="4.1025471">
      <feGaussianBlur
         inkscape:collect="always"
         stdDeviation="10.341826"
         id="feGaussianBlur3468" />
    </filter>
    <filter
       inkscape:collect="always"
       id="filter3470"
       x="-0.10048738"
       width="1.2009748"
       y="-0.24010737"
       height="1.4802147">
      <feGaussianBlur
         inkscape:collect="always"
         stdDeviation="10.341826"
         id="feGaussianBlur3472" />
    </filter>
    <filter
       inkscape:collect="always"
       id="filter3474"
       x="-0.23615884"
       width="1.4723177"
       y="-0.2948507"
       height="1.5897014">
      <feGaussianBlur
         inkscape:collect="always"
         stdDeviation="10.341826"
         id="feGaussianBlur3476" />
    </filter>
    <filter
       inkscape:collect="always"
       id="filter3478"
       x="-0.34163326"
       width="1.6832665"
       y="-0.31372657"
       height="1.6274531">
      <feGaussianBlur
         inkscape:collect="always"
         stdDeviation="10.341826"
         id="feGaussianBlur3480" />
    </filter>
    <filter
       inkscape:collect="always"
       id="filter3830"
       x="-0.18210065"
       width="1.3642013"
       y="-0.16722556"
       height="1.3344511">
      <feGaussianBlur
         inkscape:collect="always"
         stdDeviation="5.5124999"
         id="feGaussianBlur3832" />
    </filter>
    <filter
       inkscape:collect="always"
       id="filter3834"
       x="-0.12587966"
       width="1.2517593"
       y="-0.15716416"
       height="1.3143283">
      <feGaussianBlur
         inkscape:collect="always"
         stdDeviation="5.5124999"
         id="feGaussianBlur3836" />
    </filter>
    <filter
       inkscape:collect="always"
       id="filter3838"
       x="-0.053562752"
       width="1.1071255"
       y="-0.12798435"
       height="1.2559687">
      <feGaussianBlur
         inkscape:collect="always"
         stdDeviation="5.5124999"
         id="feGaussianBlur3840" />
    </filter>
    <filter
       inkscape:collect="always"
       id="filter3842"
       x="-0.065403489"
       width="1.130807"
       y="-0.85338026"
       height="2.7067605">
      <feGaussianBlur
         inkscape:collect="always"
         stdDeviation="5.5124999"
         id="feGaussianBlur3844" />
    </filter>
    <filter
       inkscape:collect="always"
       id="filter3868"
       x="-0.14982785"
       width="1.2996557"
       y="-0.3071471"
       height="1.6142942">
      <feGaussianBlur
         inkscape:collect="always"
         stdDeviation="15.357354"
         id="feGaussianBlur3870" />
    </filter>
    <filter
       inkscape:collect="always"
       id="filter3877"
       x="-0.42736721"
       width="1.8547344"
       y="-0.49915426"
       height="1.9983085">
      <feGaussianBlur
         inkscape:collect="always"
         stdDeviation="10.734829"
         id="feGaussianBlur3879" />
    </filter>
    <filter
       inkscape:collect="always"
       id="filter3881"
       x="-0.29415616"
       width="1.5883123"
       y="-0.46876079"
       height="1.9375216">
      <feGaussianBlur
         inkscape:collect="always"
         stdDeviation="10.734829"
         id="feGaussianBlur3883" />
    </filter>
    <filter
       inkscape:collect="always"
       id="filter3885"
       x="-0.12447873"
       width="1.2489575"
       y="-0.38087836"
       height="1.7617567">
      <feGaussianBlur
         inkscape:collect="always"
         stdDeviation="10.734829"
         id="feGaussianBlur3887" />
    </filter>
    <filter
       inkscape:collect="always"
       id="filter3934">
      <feGaussianBlur
         inkscape:collect="always"
         stdDeviation="0.069653593"
         id="feGaussianBlur3936" />
    </filter>
    <filter
       inkscape:collect="always"
       id="filter3938">
      <feGaussianBlur
         inkscape:collect="always"
         stdDeviation="0.069653593"
         id="feGaussianBlur3940" />
    </filter>
    <filter
       inkscape:collect="always"
       id="filter3942">
      <feGaussianBlur
         inkscape:collect="always"
         stdDeviation="0.069653593"
         id="feGaussianBlur3944" />
    </filter>
    <filter
       inkscape:collect="always"
       id="filter4006"
       x="-0.13453751"
       width="1.269075"
       y="-1.5225721"
       height="4.0451442">
      <feGaussianBlur
         inkscape:collect="always"
         stdDeviation="8.5553564"
         id="feGaussianBlur4008" />
    </filter>
    <filter
       inkscape:collect="always"
       id="filter4010">
      <feGaussianBlur
         inkscape:collect="always"
         stdDeviation="0.044999999"
         id="feGaussianBlur4012" />
    </filter>
  </defs>
  <sodipodi:namedview
     id="base"
     pagecolor="#000000"
     bordercolor="#666666"
     borderopacity="1.0"
     inkscape:pageopacity="0"
     inkscape:pageshadow="2"
     inkscape:zoom="1"
     inkscape:cx="70.59918"
     inkscape:cy="73.59369"
     inkscape:document-units="px"
     inkscape:current-layer="layer1"
     showgrid="true"
     width="256px"
     gridtolerance="10"
     guidetolerance="10"
     objecttolerance="10"
     inkscape:object-paths="true"
     inkscape:object-nodes="true"
     inkscape:snap-bbox="true"
     inkscape:bbox-paths="true"
     inkscape:bbox-nodes="true"
     inkscape:window-width="1223"
     inkscape:window-height="883"
     inkscape:window-x="262"
     inkscape:window-y="198">
    <inkscape:grid
       type="xygrid"
       id="grid2387"
       visible="true"
       enabled="true"
       originy="0px"
       empspacing="4" />
  </sodipodi:namedview>
  <metadata
     id="metadata7">
    <rdf:RDF>
      <cc:Work
         rdf:about="">
        <dc:format>image/svg+xml</dc:format>
        <dc:type
           rdf:resource="http://purl.org/dc/dcmitype/StillImage" />
      </cc:Work>
    </rdf:RDF>
  </metadata>
  <g
     inkscape:groupmode="layer"
     id="layer2"
     inkscape:label="Glow"
     style="display:inline"
     sodipodi:insensitive="true">
    <path
       id="path3848"
       d="M 80.292599,34.163547 C 78.084648,34.16359 74.683302,34.028052 70.088554,33.756931 C 65.613048,33.508486 62.211703,33.395537 59.884507,33.418084 L 56.706931,33.418084 C 56.796403,36.53552 57.199194,41.595638 57.915305,48.598449 C 58.571666,55.126933 58.899867,60.198344 58.899906,63.812701 C 58.899867,64.603356 59.004294,65.800617 59.213189,67.404483 C 59.422003,69.008369 59.52643,70.216924 59.52647,71.030152 C 59.52643,72.566265 59.19823,73.887768 58.541869,74.994667 C 57.706412,76.485596 56.408531,77.23106 54.648221,77.23106 C 53.45473,77.23106 52.380621,76.914802 51.42589,76.282287 C 50.471094,75.649773 49.993712,74.83654 49.993743,73.842585 C 49.993712,73.503741 50.068303,72.995471 50.217515,72.317772 C 50.366666,71.640082 50.441258,71.131811 50.441289,70.792958 C 50.441258,69.686064 50.34429,68.025713 50.150383,65.8119 C 49.956417,63.59811 49.859449,61.926465 49.859479,60.796958 C 49.859449,57.566632 49.51633,53.026081 48.830124,47.17529 C 48.114021,40.850174 47.711231,36.309622 47.62175,33.553622 L 43.549082,33.587507 C 37.014894,33.587551 31.88304,33.226114 28.153504,32.503195 C 25.73675,32.028853 24.528377,30.910658 24.528382,29.148605 C 24.528377,28.222471 24.91625,27.409238 25.692001,26.708904 C 26.587086,25.918311 27.735786,25.556874 29.138105,25.624592 C 30.182368,25.669823 32.569277,25.873131 36.298839,26.234517 C 39.282458,26.505646 41.699203,26.641184 43.549082,26.641134 C 45.33924,26.641184 48.054349,26.612947 51.694417,26.556422 C 55.334421,26.499998 58.04953,26.471761 59.839752,26.47171 C 62.137112,26.471761 65.545916,26.596005 70.066176,26.844443 C 74.586335,27.092981 77.995139,27.217225 80.292599,27.217175 C 81.575502,27.217225 82.649611,27.550424 83.51493,28.216775 C 84.380121,28.883222 84.812747,29.713398 84.812813,30.707304 C 84.812747,31.678711 84.380121,32.497593 83.51493,33.163948 C 82.649611,33.830391 81.575502,34.16359 80.292599,34.163547 L 80.292599,34.163547 z"
       style="font-size:106.96542358px;font-style:normal;font-variant:normal;font-weight:normal;font-stretch:normal;text-align:start;line-height:125%;writing-mode:lr-tb;text-anchor:start;fill:#000fff;fill-opacity:1;stroke:#0000ff;stroke-width:2;stroke-linecap:butt;stroke-linejoin:round;stroke-miterlimit:4;stroke-dasharray:none;stroke-opacity:1;filter:url(#filter3877);font-family:Comic Sans MS;-inkscape-font-specification:Comic Sans MS" />
    <path
       id="path3850"
       d="M 145.32102,80.212918 C 143.94848,80.212915 142.74011,79.919247 141.69589,79.331914 C 140.50238,78.654217 139.90566,77.818395 139.90571,76.824443 C 138.53318,74.091076 137.66793,71.865981 137.30994,70.149148 C 136.95186,68.432329 135.77331,63.564225 133.77433,55.544822 C 132.25263,49.468185 131.23819,44.588787 130.73102,40.906612 C 128.07553,48.361285 125.22616,54.675136 122.1829,59.848185 C 118.66217,65.834502 116.37968,70.521886 115.33544,73.910355 C 115.69345,74.429923 115.87247,74.938194 115.8725,75.435169 C 115.87247,76.451711 115.27574,77.287534 114.08231,77.94264 C 113.00817,78.552563 111.78488,78.857526 110.41244,78.857528 C 106.3845,78.857526 104.37055,77.490842 104.37057,74.757474 L 102.98318,70.45411 L 98.104928,53.850585 C 96.165549,48.248336 92.853712,40.217659 88.169409,29.758531 C 87.960549,29.261602 87.856121,28.809806 87.856127,28.403141 C 87.856121,26.302337 89.422529,25.251911 92.555359,25.25186 C 94.494712,25.251911 95.98653,26.053849 97.030818,27.657677 C 97.567857,28.470959 98.656884,30.809005 100.2979,34.671819 C 102.05823,38.760616 103.81858,43.685195 105.57894,49.445568 L 109.92014,64.422626 C 113.1126,58.820366 116.29017,51.998244 119.45287,43.956239 C 121.3922,39.054284 122.86909,35.654517 123.88357,33.756931 C 126.56881,28.764626 129.17949,26.268453 131.71562,26.268402 C 133.80412,26.268453 135.28101,27.070391 136.14632,28.674219 C 137.22038,30.616991 138.30942,35.247901 139.41341,42.566965 C 140.01008,46.271728 141.02452,50.72192 142.45673,55.917555 L 146.30562,69.234259 C 150.30362,61.960349 155.30122,52.122488 161.29841,39.720646 C 161.62653,39.042989 162.37244,36.908252 163.53614,33.316429 C 164.40132,30.673465 165.46051,28.617793 166.71371,27.149405 C 167.78774,25.907016 169.19005,25.285796 170.92064,25.285744 C 173.93403,25.285796 175.44076,26.415286 175.44086,28.674219 C 175.44076,29.058294 174.96338,30.187784 174.00871,32.062693 L 172.21853,35.722246 L 169.75702,41.753731 L 156.46491,66.218518 C 155.24154,68.906715 153.13809,72.814752 150.15451,77.94264 C 149.08034,79.456156 147.46917,80.212915 145.32102,80.212918 L 145.32102,80.212918 z"
       style="font-size:106.96542358px;font-style:normal;font-variant:normal;font-weight:normal;font-stretch:normal;text-align:start;line-height:125%;writing-mode:lr-tb;text-anchor:start;fill:#000fff;fill-opacity:1;stroke:#0000ff;stroke-width:2;stroke-linecap:butt;stroke-linejoin:round;stroke-miterlimit:4;stroke-dasharray:none;stroke-opacity:1;filter:url(#filter3881);font-family:Comic Sans MS;-inkscape-font-specification:Comic Sans MS" />
    <path
       sodipodi:nodetypes="cscccsssssccczssscsssszs"
       id="path3852"
       d="M 206.85859,78.789758 C 200.20433,79.667362 194.77482,80.11126 190.56791,80.111263 C 187.55443,80.11126 185.39129,79.761118 184.0785,79.060837 C 182.28832,78.112062 181.39322,76.372647 181.39322,73.842585 L 182.28832,62.626734 C 183.06406,52.280616 183.45193,40.804994 183.45194,28.199832 C 183.45193,27.228519 183.87709,26.403991 184.72744,25.726246 C 185.57777,25.048603 186.62951,24.709756 187.88265,24.709704 C 189.16559,24.709756 190.23224,25.048603 191.0826,25.726246 C 191.93292,26.403991 192.35808,27.228519 192.3581,28.199832 C 192.35808,40.963123 191.9553,52.574284 191.14973,63.033352 L 190.56791,68.183833 C 190.32921,70.058795 190.2397,71.719147 190.29939,73.16489 C 198.08667,73.232664 213.83186,69.640874 219.7213,69.640874 C 225.61075,69.640874 231.50019,73.605389 231.50019,78.230656 C 231.50019,84.177429 230.65884,85.498934 227.29344,88.141944 C 223.0867,91.445707 216.35507,91.511769 212.14916,91.445707 C 170.08172,90.784954 59.023683,86.820439 40.514009,90.784954 C 31.259172,94.088716 24.528382,91.445707 24.528382,89.463449 C 24.528382,87.386351 27.052428,86.820439 31.259172,86.159686 C 48.086148,83.516676 215.23913,85.498934 215.51456,85.498934 C 220.56265,85.498934 223.92805,82.855924 223.92805,80.873666 C 223.92805,80.14754 224.7694,76.250655 220.56265,76.248399 C 216.35591,76.246143 214.07823,77.837589 206.85859,78.789758 z"
       style="font-size:106.96542358px;font-style:normal;font-variant:normal;font-weight:normal;font-stretch:normal;text-align:start;line-height:125%;writing-mode:lr-tb;text-anchor:start;fill:#000fff;fill-opacity:1;stroke:#0000ff;stroke-width:2;stroke-linecap:butt;stroke-linejoin:round;stroke-miterlimit:4;stroke-dasharray:none;stroke-opacity:1;filter:url(#filter3885);font-family:Comic Sans MS;-inkscape-font-specification:Comic Sans MS" />
    <text
       transform="matrix(1.1138916,0,0,1.0381413,-0.7031227,-10.047173)"
       id="text3854"
       y="111.22567"
       x="40.167374"
       style="font-size:11.94403267px;font-style:normal;font-weight:normal;fill:#000fff;fill-opacity:1;stroke:#0000ff;stroke-width:1.85986018;stroke-linecap:butt;stroke-linejoin:miter;stroke-miterlimit:4;stroke-dasharray:none;stroke-opacity:1;filter:url(#filter4006);font-family:Bitstream Vera Sans"
       xml:space="preserve"><tspan
         y="111.22567"
         x="40.167374"
         id="tspan3856"
         sodipodi:role="line">Themable Widget Library</tspan></text>
  </g>
  <g
     inkscape:label="Ebene 1"
     inkscape:groupmode="layer"
     id="layer1"
     style="display:inline">
    <path
       style="font-size:106.96542358px;font-style:normal;font-variant:normal;font-weight:normal;font-stretch:normal;text-align:start;line-height:125%;writing-mode:lr-tb;text-anchor:start;fill:#000000;fill-opacity:1;stroke:#ffffff;stroke-width:2;stroke-linecap:butt;stroke-linejoin:round;stroke-miterlimit:4;stroke-dasharray:none;stroke-opacity:1;filter:url(#filter3942);font-family:Comic Sans MS;-inkscape-font-specification:Comic Sans MS"
       d="M 80.292599,34.163547 C 78.084648,34.16359 74.683302,34.028052 70.088554,33.756931 C 65.613048,33.508486 62.211703,33.395537 59.884507,33.418084 L 56.706931,33.418084 C 56.796403,36.53552 57.199194,41.595638 57.915305,48.598449 C 58.571666,55.126933 58.899867,60.198344 58.899906,63.812701 C 58.899867,64.603356 59.004294,65.800617 59.213189,67.404483 C 59.422003,69.008369 59.52643,70.216924 59.52647,71.030152 C 59.52643,72.566265 59.19823,73.887768 58.541869,74.994667 C 57.706412,76.485596 56.408531,77.23106 54.648221,77.23106 C 53.45473,77.23106 52.380621,76.914802 51.42589,76.282287 C 50.471094,75.649773 49.993712,74.83654 49.993743,73.842585 C 49.993712,73.503741 50.068303,72.995471 50.217515,72.317772 C 50.366666,71.640082 50.441258,71.131811 50.441289,70.792958 C 50.441258,69.686064 50.34429,68.025713 50.150383,65.8119 C 49.956417,63.59811 49.859449,61.926465 49.859479,60.796958 C 49.859449,57.566632 49.51633,53.026081 48.830124,47.17529 C 48.114021,40.850174 47.711231,36.309622 47.62175,33.553622 L 43.549082,33.587507 C 37.014894,33.587551 31.88304,33.226114 28.153504,32.503195 C 25.73675,32.028853 24.528377,30.910658 24.528382,29.148605 C 24.528377,28.222471 24.91625,27.409238 25.692001,26.708904 C 26.587086,25.918311 27.735786,25.556874 29.138105,25.624592 C 30.182368,25.669823 32.569277,25.873131 36.298839,26.234517 C 39.282458,26.505646 41.699203,26.641184 43.549082,26.641134 C 45.33924,26.641184 48.054349,26.612947 51.694417,26.556422 C 55.334421,26.499998 58.04953,26.471761 59.839752,26.47171 C 62.137112,26.471761 65.545916,26.596005 70.066176,26.844443 C 74.586335,27.092981 77.995139,27.217225 80.292599,27.217175 C 81.575502,27.217225 82.649611,27.550424 83.51493,28.216775 C 84.380121,28.883222 84.812747,29.713398 84.812813,30.707304 C 84.812747,31.678711 84.380121,32.497593 83.51493,33.163948 C 82.649611,33.830391 81.575502,34.16359 80.292599,34.163547 L 80.292599,34.163547 z"
       id="path2401" />
    <path
       style="font-size:106.96542358px;font-style:normal;font-variant:normal;font-weight:normal;font-stretch:normal;text-align:start;line-height:125%;writing-mode:lr-tb;text-anchor:start;fill:#000000;fill-opacity:1;stroke:#ffffff;stroke-width:2;stroke-linecap:butt;stroke-linejoin:round;stroke-miterlimit:4;stroke-dasharray:none;stroke-opacity:1;filter:url(#filter3938);font-family:Comic Sans MS;-inkscape-font-specification:Comic Sans MS"
       d="M 145.32102,80.212918 C 143.94848,80.212915 142.77001,79.862588 141.69589,79.331914 C 139,78 137.66793,71.865981 137.30994,70.149148 C 136.95186,68.432329 135.77331,63.564225 133.77433,55.544822 C 132.25263,49.468185 131.23819,44.588787 130.73102,40.906612 C 128.07553,48.361285 125.22616,54.675136 122.1829,59.848185 C 118.66217,65.834502 117.04424,70.611531 116,74 C 115,77 114,79 110.41244,78.857528 C 106.38767,78.697693 105,77 104.37057,74.757474 L 102.98318,70.45411 L 98.104928,53.850585 C 96.165549,48.248336 92.853712,40.217659 88.169409,29.758531 C 87.960549,29.261602 87.856121,28.809806 87.856127,28.403141 C 87.856121,26.302337 89.422529,25.251911 92.555359,25.25186 C 94.494712,25.251911 95.98653,26.053849 97.030818,27.657677 C 97.567857,28.470959 98.656884,30.809005 100.2979,34.671819 C 102.05823,38.760616 103.81858,43.685195 105.57894,49.445568 L 109.92014,64.422626 C 113.1126,58.820366 116.29017,51.998244 119.45287,43.956239 C 121.3922,39.054284 122.86909,35.654517 123.88357,33.756931 C 126.56881,28.764626 129.17949,26.268453 131.71562,26.268402 C 133.80412,26.268453 135.28101,27.070391 136.14632,28.674219 C 137.22038,30.616991 138.30942,35.247901 139.41341,42.566965 C 140.01008,46.271728 141.02452,50.72192 142.45673,55.917555 L 146.30562,69.234259 C 150.30362,61.960349 155.30122,52.122488 161.29841,39.720646 C 161.62653,39.042989 162.37244,36.908252 163.53614,33.316429 C 164.40132,30.673465 165.46051,28.617793 166.71371,27.149405 C 167.78774,25.907016 169.19005,25.285796 170.92064,25.285744 C 173.93403,25.285796 175.44076,26.415286 175.44086,28.674219 C 175.44076,29.058294 174.96338,30.187784 174.00871,32.062693 L 172.21853,35.722246 L 169.75702,41.753731 L 156.46491,66.218518 C 155.24154,68.906715 153.13809,72.814752 150.15451,77.94264 C 149.08034,79.456156 147.46917,80.212915 145.32102,80.212918 L 145.32102,80.212918 z"
       id="path2399"
       sodipodi:nodetypes="cssccscsccccssccccccsccccsccssccccccc" />
    <path
       style="font-size:106.96542358px;font-style:normal;font-variant:normal;font-weight:normal;font-stretch:normal;text-align:start;line-height:125%;writing-mode:lr-tb;text-anchor:start;fill:#000000;fill-opacity:1;stroke:#ffffff;stroke-width:2;stroke-linecap:butt;stroke-linejoin:round;stroke-miterlimit:4;stroke-dasharray:none;stroke-opacity:1;filter:url(#filter3934);font-family:Comic Sans MS;-inkscape-font-specification:Comic Sans MS"
       d="M 206.85859,78.789758 C 200.20433,79.667362 194.77482,80.11126 190.56791,80.111263 C 187.55443,80.11126 185.39129,79.761118 184.0785,79.060837 C 182.28832,78.112062 181.39322,76.372647 181.39322,73.842585 L 182.28832,62.626734 C 183.06406,52.280616 183.45193,40.804994 183.45194,28.199832 C 183.45193,27.228519 183.87709,26.403991 184.72744,25.726246 C 185.57777,25.048603 186.62951,24.709756 187.88265,24.709704 C 189.16559,24.709756 190.23224,25.048603 191.0826,25.726246 C 191.93292,26.403991 192.35808,27.228519 192.3581,28.199832 C 192.35808,40.963123 191.9553,52.574284 191.14973,63.033352 L 190.56791,68.183833 C 190.32921,70.058795 190.2397,71.719147 190.29939,73.16489 C 198.08667,73.232664 213.83186,69.640874 219.7213,69.640874 C 225.61075,69.640874 231.50019,73.605389 231.50019,78.230656 C 231.50019,84.177429 230.65884,85.498934 227.29344,88.141944 C 223.0867,91.445707 216.35507,91.511769 212.14916,91.445707 C 170.08172,90.784954 59.023683,86.820439 40.514009,90.784954 C 31.259172,94.088716 24.528382,91.445707 24.528382,89.463449 C 24.528382,87.386351 27.052428,86.820439 31.259172,86.159686 C 48.086148,83.516676 215.23913,85.498934 215.51456,85.498934 C 220.56265,85.498934 223.92805,82.855924 223.92805,80.873666 C 223.92805,80.14754 224.7694,76.250655 220.56265,76.248399 C 216.35591,76.246143 214.07823,77.837589 206.85859,78.789758 z"
       id="text2383"
       sodipodi:nodetypes="cscccsssssccczssscsssszs" />
    <text
       xml:space="preserve"
       style="font-size:12.84401226000000000px;font-style:normal;font-weight:normal;fill:#ffffff;fill-opacity:1;stroke:none;stroke-width:0.50000000000000000;stroke-linecap:butt;stroke-linejoin:miter;stroke-miterlimit:4;stroke-dasharray:none;stroke-opacity:1;font-family:Bitstream Vera Sans;filter:url(#filter4010)"
       x="42.515179"
       y="109.19921"
       id="text2403"
       transform="scale(1.0358413,0.9653989)"><tspan
         sodipodi:role="line"
         id="tspan2405"
         x="42.515179"
         y="109.19921">Themable Widget Library</tspan></text>
  </g>
</svg>
